<?xml version="1.0" standalone="no"?>
<!DOCTYPE svg PUBLIC "-//W3C//DTD SVG 20010904//EN"
 "http://www.w3.org/TR/2001/REC-SVG-20010904/DTD/svg10.dtd">
<svg version="1.0" xmlns="http://www.w3.org/2000/svg"
 width="512.000000pt" height="512.000000pt" viewBox="0 0 512.000000 512.000000"
 preserveAspectRatio="xMidYMid meet">
<metadata>
Created by potrace 1.14, written by Peter Selinger 2001-2017
</metadata>
<g transform="translate(0.000000,512.000000) scale(0.100000,-0.100000)"
fill="#000000" stroke="none">
<path d="M2297 5113 c-28 -4 -125 -92 -183 -165 l-29 -37 -160 -1 c-173 -2
-207 -10 -258 -58 -40 -38 -67 -95 -69 -145 -1 -37 5 -148 17 -292 6 -70 17
-244 19 -280 1 -30 0 -30 -54 -33 l-55 -3 -3 46 c-3 58 -23 97 -64 127 -29 20
-44 23 -133 22 -91 0 -104 -3 -142 -27 -85 -54 -115 -124 -112 -258 2 -93 28
-160 80 -203 47 -40 73 -48 168 -52 67 -3 90 0 121 16 49 25 81 77 83 135 l1
45 63 0 63 0 1 -47 c0 -27 2 -57 4 -67 2 -10 7 -71 10 -135 4 -64 9 -129 11
-146 2 -16 6 -76 9 -132 l6 -103 -54 0 -54 0 -5 51 c-5 53 -26 89 -71 123 -40
29 -194 29 -252 -1 -92 -48 -125 -116 -125 -253 0 -136 32 -199 122 -244 44
-22 62 -25 142 -23 76 2 96 6 122 24 40 28 64 79 64 132 l0 41 58 0 59 0 -3
-95 c-4 -153 -14 -259 -40 -410 -23 -135 -14 -125 -100 -125 l-74 0 -1 33 c-1
50 -6 66 -31 103 -33 49 -78 64 -181 60 -96 -4 -145 -25 -189 -79 -37 -47 -50
-99 -49 -190 2 -124 13 -157 72 -215 44 -43 99 -59 196 -58 66 1 87 5 109 22
46 34 67 70 72 123 l5 51 53 0 c30 0 54 -3 54 -8 0 -4 -18 -70 -40 -147 -55
-194 -54 -211 23 -360 59 -113 64 -121 99 -129 33 -8 41 -7 62 13 40 38 38 55
-22 174 l-56 112 27 100 c15 55 36 134 47 175 27 100 67 274 75 330 3 25 8 56
10 70 35 231 39 505 10 847 -2 23 -6 93 -10 155 -4 62 -8 129 -10 148 -2 19
-6 78 -10 130 -14 208 -25 369 -30 430 -3 25 -7 102 -11 171 -9 166 -18 159
204 159 120 0 170 4 190 14 15 8 52 43 82 78 96 110 105 118 144 118 69 0 112
40 99 91 -14 52 -69 68 -176 52z m-926 -982 c1 -24 1 -194 0 -213 -1 -14 -10
-16 -58 -13 -78 6 -88 18 -89 113 -1 85 6 109 39 122 36 15 107 9 108 -9z m57
-890 l3 -124 -61 6 c-79 7 -89 20 -90 115 0 108 16 128 103 127 l42 0 3 -124z
m-98 -777 l0 -123 -56 4 c-83 5 -94 20 -94 121 0 77 2 84 26 103 19 15 39 20
75 18 l49 -1 0 -122z"/>
<path d="M2672 5100 c-12 -12 -22 -26 -23 -33 -6 -65 23 -96 90 -97 47 0 59
-9 156 -123 72 -85 77 -87 267 -87 221 0 213 6 204 -154 -4 -67 -8 -143 -10
-171 -2 -27 -7 -93 -11 -145 -3 -52 -8 -115 -10 -140 -2 -25 -7 -90 -10 -145
-11 -164 -13 -196 -20 -290 -4 -49 -8 -106 -10 -125 -19 -194 -24 -538 -11
-690 19 -218 47 -361 126 -649 27 -101 50 -192 50 -203 0 -10 -15 -47 -34 -81
-18 -34 -61 -116 -96 -182 -75 -143 -135 -257 -201 -382 -43 -80 -50 -101 -52
-158 l-2 -65 -515 0 -515 0 -2 62 c-2 55 -9 76 -69 192 -72 142 -88 164 -123
171 -47 9 -95 -37 -86 -83 2 -11 31 -73 65 -137 l62 -117 2 -613 c1 -672 -2
-639 63 -651 29 -6 39 -2 61 19 l26 26 0 333 1 333 250 0 c180 1 256 4 272 13
43 24 43 100 0 124 -16 9 -93 13 -267 14 -135 1 -248 2 -251 3 -3 0 -5 37 -5
81 l0 80 517 0 517 0 -3 -77 c-1 -43 -3 -80 -4 -83 0 -3 -58 -5 -127 -5 -125
0 -126 0 -150 -28 -30 -35 -30 -59 0 -93 23 -28 24 -28 152 -29 l129 0 1 -325
c0 -179 4 -335 8 -346 8 -27 57 -48 91 -40 52 13 52 22 52 667 l0 596 73 139
c40 76 88 167 107 202 19 35 72 137 119 227 101 197 101 200 44 400 -22 77
-40 143 -40 147 0 5 25 8 55 8 l55 0 0 -35 c0 -54 26 -107 66 -135 30 -20 50
-25 113 -26 95 -2 157 16 200 58 56 54 73 105 72 215 -1 107 -19 161 -67 207
-54 51 -82 60 -186 60 -83 1 -100 -2 -125 -20 -37 -28 -74 -83 -72 -109 5 -65
5 -65 -75 -65 l-74 0 -11 48 c-31 137 -53 339 -55 497 l-1 80 56 3 56 3 5 -54
c5 -65 33 -107 84 -132 47 -22 192 -17 241 8 86 46 120 110 122 234 3 111 -10
162 -51 209 -52 59 -99 77 -205 77 -85 1 -94 -1 -128 -27 -42 -32 -65 -79 -65
-130 0 -32 -2 -34 -38 -38 -75 -7 -74 -9 -67 110 4 59 8 123 10 142 2 19 7 85
11 145 4 61 8 124 10 140 1 17 2 45 3 63 l1 32 63 0 62 0 2 -46 c3 -59 29
-103 78 -131 32 -18 52 -21 124 -19 120 3 179 36 227 126 15 28 19 57 19 145
0 95 -3 116 -22 152 -48 89 -129 127 -259 120 -110 -6 -162 -54 -167 -153 l-2
-45 -55 3 c-63 3 -58 -15 -45 163 4 55 8 120 10 145 2 25 6 92 10 150 4 58 8
120 7 138 0 85 -70 179 -149 201 -21 6 -107 11 -190 11 -84 0 -153 4 -153 8 0
5 -37 47 -82 94 -89 93 -118 108 -209 108 -32 0 -52 -6 -67 -20z m1199 -972
c22 -14 24 -22 24 -101 0 -105 -8 -116 -88 -122 -48 -3 -57 -1 -58 13 -1 21
-1 154 0 200 l1 33 49 -3 c26 -2 59 -11 72 -20z m-49 -788 c14 -17 18 -40 18
-100 0 -73 -2 -80 -26 -99 -19 -15 -41 -21 -75 -21 l-49 0 0 118 c0 65 2 121
5 124 3 2 28 4 57 2 40 -2 56 -7 70 -24z m91 -770 c25 -20 27 -26 27 -104 0
-102 -12 -118 -94 -122 l-54 -3 -1 123 -2 122 49 3 c36 1 55 -3 75 -19z"/>
<path d="M2939 4330 c-67 -23 -98 -47 -132 -102 -20 -32 -30 -62 -32 -99 -13
-215 240 -331 394 -180 104 102 82 283 -43 356 -65 38 -124 46 -187 25z m112
-153 c57 -44 39 -130 -29 -143 -54 -10 -88 16 -98 75 -7 38 36 80 81 80 17 0
37 -5 46 -12z"/>
<path d="M2022 4325 c-49 -23 -107 -87 -124 -136 -67 -199 134 -376 320 -283
121 60 165 209 95 322 -44 72 -100 104 -187 108 -48 3 -82 -1 -104 -11z m139
-148 c63 -48 32 -147 -46 -147 -44 0 -85 46 -79 88 1 6 2 16 3 20 0 5 10 18
21 30 23 25 75 29 101 9z"/>
<path d="M2155 3510 c-160 -35 -234 -218 -143 -354 77 -117 236 -138 342 -45
152 134 72 380 -129 401 -22 2 -53 1 -70 -2z m81 -153 c27 -10 53 -60 46 -93
-6 -33 -47 -63 -80 -59 -15 1 -32 3 -37 4 -6 0 -19 15 -29 31 -24 41 -13 86
26 110 31 18 37 19 74 7z"/>
<path d="M2845 3502 c-194 -62 -213 -330 -31 -424 78 -40 157 -35 230 14 116
76 138 233 49 338 -64 74 -156 101 -248 72z m145 -188 c15 -38 12 -50 -16 -84
-23 -26 -32 -31 -61 -27 -43 6 -61 22 -72 61 -25 92 116 139 149 50z"/>
<path d="M2030 2669 c-93 -42 -143 -116 -143 -214 0 -131 96 -227 228 -228 92
-1 166 46 210 133 26 50 25 144 -3 196 -23 45 -80 100 -121 116 -51 20 -123
18 -171 -3z m147 -164 c36 -41 18 -106 -35 -126 -33 -13 -89 13 -102 46 -33
86 75 149 137 80z"/>
<path d="M2940 2678 c-95 -27 -165 -121 -164 -223 2 -247 327 -317 439 -95 24
47 24 144 1 190 -54 104 -169 158 -276 128z m110 -153 c20 -12 38 -61 33 -88
-11 -55 -94 -80 -135 -40 -24 24 -28 84 -8 108 26 31 77 40 110 20z"/>
</g>
</svg>
